custom-analysis
version=1
nRows=14
nColumns=42
inDegrees=no

This file contains tibia displacement and acting force.

Units are S.I. units (seconds, meters, Newtons, ...)
Angles are in degrees.

endheader
time	APT	SIT	knee_angle	aACL_R_force	pACL_R_force	aPCL_R_force	pPCL_R_force	aMCL_R_force	mMCL_R_force	pMCL_R_force	aLCL_R_force	mLCL_R_force	pLCL_R_force	aACL_R_length	pACL_R_length	aPCL_R_length	pPCL_R_length	aMCL_R_length	mMCL_R_length	pMCL_R_length	aLCL_R_length	mLCL_R_length	pLCL_R_length	aACL_R_strain	pACL_R_strain	aPCL_R_strain	pPCL_R_strain	aMCL_R_strain	mMCL_R_strain	pMCL_R_strain	aLCL_R_strain	mLCL_R_strain	pLCL_R_strain	femur_lat_meniscii_force_r	femur_lat_meniscii_torque_r	femur_med_meniscii_force_r	femur_med_meniscii_torque_r	femur_lat_tibia_force_r	femur_lat_tibia_torque_r	femur_med_tibia_force_r	femur_med_tibia_torque_r
      0.24431952	      0.00550467	      0.00091911	     89.99998384	     40.22337764	     11.71846745	    842.67058995	    373.80650376	     41.22256647	      2.09058034	      0.00000000	      0.00000000	      0.00000000	      0.00000000	      0.03325911	      0.02622817	      0.03648045	      0.03288519	      0.06266364	      0.06047477	      0.05693678	      0.04884089	      0.04316886	      0.03794034	      0.07268427	      0.03428674	      0.17318197	      0.09297410	      0.07990494	      0.01139366	     -0.06242945	     -0.12748605	     -0.23348845	     -0.27515513	    205.36568886	     83.57848901	     77.01217601	     25.32997242	     40.52104582	      1.44342765	    647.54735644	     11.86770672
      0.24550818	      0.00550609	      0.00091855	     89.99998384	     39.94905631	     11.35965058	    842.06823073	    372.31991433	     40.18212366	      1.00017289	      0.00000000	      0.00000000	      0.00000000	      0.00000000	      0.03326056	      0.02622934	      0.03648026	      0.03288499	      0.06266508	      0.06047606	      0.05693791	      0.04884013	      0.04316802	      0.03793933	      0.07273084	      0.03433315	      0.17317599	      0.09296756	      0.07992971	      0.01141532	     -0.06241088	     -0.12749963	     -0.23350329	     -0.27517432	    211.54182804	     86.09463525	     79.34619343	     26.19340468	     41.03271196	      1.46144397	    654.63615937	     11.99542081
      0.24669685	      0.00550758	      0.00091880	     89.99998384	     40.10299960	     11.52156800	    842.11244222	    372.74801420	     40.62259474	      1.44931186	      0.00000000	      0.00000000	      0.00000000	      0.00000000	      0.03326154	      0.02622999	      0.03647925	      0.03288399	      0.06266576	      0.06047657	      0.05693825	      0.04883850	      0.04316631	      0.03793745	      0.07276255	      0.03435864	      0.17314345	      0.09293425	      0.07994136	      0.01142390	     -0.06240530	     -0.12752874	     -0.23353369	     -0.27521036	    209.39350707	     85.21992522	     78.44483953	     25.85688179	     41.24655395	      1.46912247	    651.12760690	     11.93266990
      0.24828765	      0.00550947	      0.00091861	     89.99998384	     40.02108379	     11.38970884	    841.76145421	    372.10307439	     40.26024865	      1.06165277	      0.00000000	      0.00000000	      0.00000000	      0.00000000	      0.03326310	      0.02623115	      0.03647844	      0.03288320	      0.06266720	      0.06047783	      0.05693928	      0.04883681	      0.04316451	      0.03793543	      0.07281294	      0.03440444	      0.17311751	      0.09290792	      0.07996626	      0.01144482	     -0.06238833	     -0.12755897	     -0.23356558	     -0.27524889	    211.90726289	     86.24435052	     79.25846937	     26.17423792	     41.77046785	      1.48770501	    653.02050183	     11.96446077
      0.24987844	      0.00551143	      0.00091919	     89.99998384	     40.36021385	     11.76843205	    842.00497361	    373.22301647	     41.27715870	      2.10451783	      0.00000000	      0.00000000	      0.00000000	      0.00000000	      0.03326419	      0.02623177	      0.03647685	      0.03288164	      0.06266793	      0.06047835	      0.05693958	      0.04883426	      0.04316186	      0.03793255	      0.07284803	      0.03442879	      0.17306627	      0.09285628	      0.07997885	      0.01145351	     -0.06238345	     -0.12760446	     -0.23361271	     -0.27530388	    206.55936093	     84.06667796	     77.12439581	     25.38128446	     42.03724900	      1.49830776	    645.16538376	     11.82386594
      0.25106760	      0.00551276	      0.00091867	     89.99998384	     40.10245678	     11.43083224	    841.44440352	    371.85994364	     40.32509415	      1.10516142	      0.00000000	      0.00000000	      0.00000000	      0.00000000	      0.03326552	      0.02623283	      0.03647662	      0.03288143	      0.06266941	      0.06047970	      0.05694078	      0.04883329	      0.04316082	      0.03793136	      0.07289092	      0.03447080	      0.17305904	      0.09284941	      0.08000435	      0.01147617	     -0.06236368	     -0.12762180	     -0.23363122	     -0.27532670	    212.29099841	     86.40165321	     79.26120512	     26.17286481	     42.63898455	      1.51954753	    651.30921409	     11.93173943
      0.25225676	      0.00551417	      0.00091890	     89.99998384	     40.25080983	     11.58681069	    841.46251747	    372.21546971	     40.71135870	      1.49549016	      0.00000000	      0.00000000	      0.00000000	      0.00000000	      0.03326643	      0.02623342	      0.03647563	      0.03288048	      0.06267019	      0.06048033	      0.05694124	      0.04883152	      0.04315897	      0.03792935	      0.07292045	      0.03449395	      0.17302716	      0.09281762	      0.08001767	      0.01148667	     -0.06235602	     -0.12765340	     -0.23366403	     -0.27536508	    210.39595939	     85.63033953	     78.45646707	     25.87437506	     42.97256203	      1.53139546	    648.04359529	     11.87367159
      0.25389205	      0.00551602	      0.00091872	     89.99998384	     40.14241393	     11.42048268	    841.07888161	    371.50787938	     40.30601496	      1.06133844	      0.00000000	      0.00000000	      0.00000000	      0.00000000	      0.03326796	      0.02623454	      0.03647477	      0.03287966	      0.06267175	      0.06048171	      0.05694241	      0.04882955	      0.04315689	      0.03792706	      0.07296963	      0.03453823	      0.17299949	      0.09279054	      0.08004458	      0.01150975	     -0.06233685	     -0.12768866	     -0.23370092	     -0.27540881	    213.19603612	     86.77123607	     79.41936703	     26.22898144	     43.68586625	      1.55668634	    650.15263506	     11.91059894
      0.25511626	      0.00551746	      0.00091903	     89.99998384	     40.33676063	     11.63208591	    841.14985300	    372.02789733	     40.82356581	      1.58633919	      0.00000000	      0.00000000	      0.00000000	      0.00000000	      0.03326881	      0.02623504	      0.03647369	      0.03287863	      0.06267252	      0.06048233	      0.05694287	      0.04882760	      0.04315486	      0.03792487	      0.07299696	      0.03455781	      0.17296457	      0.09275609	      0.08005783	      0.01152019	     -0.06232922	     -0.12772349	     -0.23373695	     -0.27545062	    209.10664096	     85.10610039	     78.35524714	     25.82892893	     44.03665680	      1.56914963	    645.84700684	     11.83388191
      0.25664380	      0.00551921	      0.00091882	     89.99998384	     40.13231281	     11.34568468	    840.66819363	    371.03411127	     40.20201520	      0.92623245	      0.00000000	      0.00000000	      0.00000000	      0.00000000	      0.03327010	      0.02623592	      0.03647295	      0.03287795	      0.06267409	      0.06048374	      0.05694410	      0.04882576	      0.04315294	      0.03792276	      0.07303873	      0.03459255	      0.17294085	      0.09273354	      0.08008492	      0.01154380	     -0.06230903	     -0.12775631	     -0.23377115	     -0.27549099	    213.22647265	     86.78358459	     79.81516839	     26.37525055	     44.93482863	      1.60104392	    649.64721591	     11.89894248
      0.25799318	      0.00552093	      0.00091945	     89.99998384	     40.43170110	     11.67491523	    840.86988105	    372.00591739	     41.10810559	      1.84924562	      0.00000000	      0.00000000	      0.00000000	      0.00000000	      0.03327075	      0.02623610	      0.03647148	      0.03287656	      0.06267475	      0.06048424	      0.05694442	      0.04882331	      0.04315041	      0.03792005	      0.07305975	      0.03459964	      0.17289378	      0.09268725	      0.08009638	      0.01155211	     -0.06230364	     -0.12780001	     -0.23381608	     -0.27554269	    208.49372218	     84.85613107	     77.97312572	     25.68829948	     45.39505883	      1.61750835	    642.70368733	     11.76922586
      0.25934256	      0.00552260	      0.00091914	     89.99998384	     40.25901836	     11.43076135	    840.36246341	    370.87423108	     40.37994808	      1.07352778	      0.00000000	      0.00000000	      0.00000000	      0.00000000	      0.03327197	      0.02623692	      0.03647094	      0.03287606	      0.06267634	      0.06048568	      0.05694570	      0.04882179	      0.04314881	      0.03791828	      0.07309907	      0.03463179	      0.17287629	      0.09267087	      0.08012374	      0.01157618	     -0.06228270	     -0.12782716	     -0.23384447	     -0.27557655	    212.98131166	     86.68463872	     79.70335559	     26.32355737	     46.21862826	      1.64662124	    647.06959000	     11.84622664
      0.26069193	      0.00552442	      0.00091963	     89.99998384	     40.51233875	     11.70752099	    840.48015150	    371.60095849	     41.08474820	      1.78913834	      0.00000000	      0.00000000	      0.00000000	      0.00000000	      0.03327281	      0.02623727	      0.03646957	      0.03287475	      0.06267718	      0.06048634	      0.05694618	      0.04881944	      0.04314636	      0.03791565	      0.07312593	      0.03464574	      0.17283220	      0.09262737	      0.08013826	      0.01158729	     -0.06227478	     -0.12786923	     -0.23388788	     -0.27562688	    209.28093696	     85.17808002	     78.26713975	     25.78213473	     46.67714183	      1.66297453	    641.38909219	     11.74389137
      0.26204131	      0.00552616	      0.00091939	     89.99998384	     40.38727682	     11.52272018	    840.04193863	    370.68065692	     40.51189841	      1.17641563	      0.00000000	      0.00000000	      0.00000000	      0.00000000	      0.03327408	      0.02623813	      0.03646892	      0.03287415	      0.06267873	      0.06048773	      0.05694738	      0.04881780	      0.04314463	      0.03791373	      0.07316705	      0.03467977	      0.17281119	      0.09260723	      0.08016488	      0.01161045	     -0.06225495	     -0.12789857	     -0.23391856	     -0.27566341	    212.83299895	     86.62561134	     79.63193827	     26.28242818	     47.44689384	      1.69019525	    644.58047173	     11.79706983
